Coordinates
version=1
nRows=10
nColumns=40
inDegrees=yes

Units are S.I. units (second, meters, Newtons, ...)
Angles are in degrees.

endheader
time	pelvis_tilt	pelvis_list	pelvis_rotation	pelvis_tx	pelvis_ty	pelvis_tz	hip_flexion_r	hip_adduction_r	hip_rotation_r	knee_angle_r	knee_angle_r_beta	ankle_angle_r	subtalar_angle_r	mtp_angle_r	hip_flexion_l	hip_adduction_l	hip_rotation_l	knee_angle_l	knee_angle_l_beta	ankle_angle_l	subtalar_angle_l	mtp_angle_l	lumbar_extension	lumbar_bending	lumbar_rotation	arm_flex_r	arm_add_r	arm_rot_r	elbow_flex_r	pro_sup_r	wrist_flex_r	wrist_dev_r	arm_flex_l	arm_add_l	arm_rot_l	elbow_flex_l	pro_sup_l	wrist_flex_l	wrist_dev_l
      5.82750000	     -5.39695498	     -4.95482932	      0.57361206	      0.76444044	      0.93106748	      0.51731241	     10.80199726	      4.72667487	    -17.17043263	     11.51327731	     11.51327731	      8.61282007	      4.91466287	     -7.75581117	     32.07958762	    -10.39161785	     -0.98237751	     36.89036036	     36.89036036	     12.88504194	    -18.75818545	     16.94125981	    -10.77712518	      8.14107178	      2.51366092	     24.21844414	    -18.05848174	     -1.67895170	     57.44720628	     45.30057227	      0.00000000	      0.00000000	     -0.31903950	     -9.66390678	     -8.22138030	     39.61517658	     46.89306201	      0.00000000	      0.00000000
      5.84071429	     -5.52618319	     -4.91071298	      0.81288744	      0.76250417	      0.93081791	      0.51676276	     10.56797270	      4.64984435	    -17.27576316	     11.44022273	     11.44022273	      8.86909291	      4.83413089	     -7.85332333	     32.28980093	     -9.88278941	     -0.35184127	     33.62507309	     33.62507309	     11.94275356	    -18.40640891	     15.49181268	    -10.81009111	      8.09421572	      2.75524198	     24.61607305	    -18.33898604	     -2.12278562	     60.70295670	     45.21867971	      0.00000000	      0.00000000	     -0.51749703	     -9.62491876	     -8.63829416	     38.52755989	     46.89258588	      0.00000000	      0.00000000
      5.85392857	     -5.66746077	     -4.89061583	      1.07695298	      0.76061218	      0.93050053	      0.51610012	     10.34270752	      4.59265203	    -17.39100356	     11.36499662	     11.36499662	      9.14144992	      4.73964640	     -7.92259682	     32.57013060	     -9.38514474	      0.34824789	     30.64069896	     30.64069896	     11.46793971	    -17.73970622	     15.31885932	    -10.78494394	      8.07560766	      2.32733810	     25.77846986	    -17.93525540	     -2.30618396	     62.81178144	     45.16254774	      0.00000000	      0.00000000	     -1.24249826	     -9.79749350	     -8.69025812	     37.84706099	     46.87365494	      0.00000000	      0.00000000
      5.86714286	     -5.85836464	     -4.83072477	      1.28873993	      0.75879046	      0.93018125	      0.51547902	     10.15272342	      4.49935349	    -17.42429094	     11.26182023	     11.26182023	      9.37053309	      4.72419205	     -7.96930985	     32.83608880	     -8.97224563	      0.72383358	     27.78286943	     27.78286943	     11.10759299	    -16.42155084	     15.18080168	    -10.70174455	      7.95270716	      2.04077496	     26.73912069	    -17.59240459	     -2.41469785	     64.79456379	     45.10567450	      0.00000000	      0.00000000	     -1.90658154	     -9.91722033	     -8.75169799	     37.34776398	     46.86277591	      0.00000000	      0.00000000
      5.88035714	     -5.91963803	     -4.94752636	      1.52658064	      0.75732771	      0.92974140	      0.51472052	      9.80256670	      4.57311940	    -17.74602624	     11.19256749	     11.19256749	      9.75708328	      4.90078244	     -7.92849040	     33.00062483	     -8.77871979	      1.00332627	     25.18189237	     25.18189237	      9.86202013	    -15.17849691	     12.56521829	    -10.78945699	      8.13481639	      2.63374861	     26.18448446	    -18.09661225	     -3.02915551	     70.53508511	     44.95497653	      0.00000000	      0.00000000	     -1.99248619	     -9.78749099	     -9.16544617	     36.74573495	     46.86883227	      0.00000000	      0.00000000
      5.89357143	     -6.03862764	     -4.95497208	      1.73507268	      0.75586171	      0.92938614	      0.51392540	      9.48696675	      4.55444683	    -17.82636855	     11.05338591	     11.05338591	     10.03948230	      4.85778971	     -7.96292611	     33.25546408	     -8.53206910	      1.03703124	     22.98357054	     22.98357054	      9.58476088	    -13.44725346	     12.58287871	    -10.71610724	      8.14963266	      2.21051182	     27.27289756	    -17.38771207	     -3.17692540	     72.42698733	     44.90645031	      0.00000000	      0.00000000	     -2.68254904	     -9.94920336	     -9.11657969	     36.19014055	     46.84373080	      0.00000000	      0.00000000
      5.90678571	     -6.09907623	     -5.03258149	      1.91907465	      0.75469188	      0.92903503	      0.51315213	      9.07053563	      4.62670410	    -17.94249300	     10.87286760	     10.87286760	     10.32201937	      4.93768773	     -7.95865961	     33.46988316	     -8.41934157	      0.90416199	     21.17099097	     21.17099097	      9.33400697	    -11.65055873	     12.39782737	    -10.69074089	      8.17712008	      1.83635802	     28.13687156	    -16.68977738	     -3.26567224	     75.13451930	     44.82968389	      0.00000000	      0.00000000	     -3.38144168	    -10.04524326	     -9.10434406	     35.79382959	     46.82276143	      0.00000000	      0.00000000
      5.92000000	     -6.13400125	     -5.19033821	      2.05623332	      0.75375723	      0.92858330	      0.51233210	      8.59565540	      4.78301208	    -18.06600225	     10.66769964	     10.66769964	     10.66932068	      5.15166715	     -7.78715575	     33.72440899	     -8.46796630	      0.51911867	     19.82186687	     19.82186687	      8.81503391	     -9.96114553	     11.48252840	    -10.74252604	      8.32522439	      2.44528617	     27.75507504	    -16.94405186	     -3.82369379	     79.98693510	     44.71863965	      0.00000000	      0.00000000	     -3.62491820	     -9.99118458	     -9.00787086	     35.86402381	     46.77704071	      0.00000000	      0.00000000
      5.93321429	     -6.13657517	     -5.25525440	      2.17344173	      0.75303538	      0.92824672	      0.51140589	      8.07388305	      4.84116073	    -18.09816959	     10.46834288	     10.46834288	     10.95542038	      5.23383428	     -7.77996374	     33.82057035	     -8.39040317	      0.19551434	     18.67338480	     18.67338480	      8.45679123	     -8.89663002	     11.56114412	    -10.68670318	      8.35928583	      2.10678050	     28.68381518	    -16.07192248	     -3.84932729	     82.08164085	     44.66289470	      0.00000000	      0.00000000	     -4.26560332	    -10.08569395	     -8.86033151	     35.45581620	     46.74098549	      0.00000000	      0.00000000
      5.94642857	     -6.12344123	     -5.44583501	      2.25792367	      0.75262596	      0.92775420	      0.51046214	      7.45713971	      5.05298143	    -18.18995685	     10.15101901	     10.15101901	     11.27454765	      5.52379409	     -7.63499664	     33.99948622	     -8.51387101	     -0.31856965	     18.08727077	     18.08727077	      8.11577452	     -7.89546375	     11.18536606	    -10.68368370	      8.53578567	      2.29326930	     28.92873038	    -15.81212657	     -3.91410846	     85.72384447	     44.57254402	      0.00000000	      0.00000000	     -4.80189746	    -10.10131443	     -8.56022254	     35.62088241	     46.67751439	      0.00000000	      0.00000000
